<?xml version="1.0" encoding="UTF-8" standalone="no" ?>
<!DOCTYPE svg PUBLIC "-//W3C//DTD SVG 1.1//EN" "http://www.w3.org/Graphics/SVG/1.1/DTD/svg11.dtd">
<svg xmlns="http://www.w3.org/2000/svg" xmlns:xlink="http://www.w3.org/1999/xlink" version="1.1" width="350" height="350" viewBox="0 0 350 350" xml:space="preserve">
<desc>Created with Fabric.js 1.7.22</desc>
<defs>
</defs>
<g id="icon" style="stroke: none; stroke-width: 1; stroke-dasharray: none; stroke-linecap: butt; stroke-linejoin: miter; stroke-miterlimit: 10; fill: none; fill-rule: nonzero; opacity: 1;" transform="translate(-1.9444444444444287 -1.9444444444444287) scale(3.89 3.89)" >
	<path d="M 45 90 C 20.187 90 0 69.813 0 45 S 20.187 0 45 0 c 24.813 0 45 20.187 45 45 S 69.813 90 45 90 z" style="stroke: none; stroke-width: 1; stroke-dasharray: none; stroke-linecap: butt; stroke-linejoin: miter; stroke-miterlimit: 10; fill: rgb(67,130,181); fill-rule: nonzero; opacity: 1;" transform=" matrix(1 0 0 1 0 0) " stroke-linecap="round" />
	<path d="M 46.105 64.754 c -10.893 0 -19.754 -8.861 -19.754 -19.754 c 0 -10.893 8.862 -19.754 19.754 -19.754 c 4.912 0 9.622 1.815 13.26 5.112 c 1.228 1.113 1.321 3.01 0.208 4.238 c -1.111 1.228 -3.01 1.321 -4.237 0.208 c -2.532 -2.295 -5.811 -3.559 -9.23 -3.559 c -7.584 0 -13.754 6.17 -13.754 13.754 c 0 7.584 6.17 13.754 13.754 13.754 c 3.42 0 6.698 -1.264 9.23 -3.559 c 1.228 -1.112 3.126 -1.02 4.237 0.208 c 1.113 1.228 1.02 3.125 -0.208 4.237 C 55.728 62.939 51.019 64.754 46.105 64.754 z" style="stroke: none; stroke-width: 1; stroke-dasharray: none; stroke-linecap: butt; stroke-linejoin: miter; stroke-miterlimit: 10; fill: rgb(255,255,255); fill-rule: nonzero; opacity: 1;" transform=" matrix(1 0 0 1 0 0) " stroke-linecap="round" />
	<path d="M 46.105 31.246 c -1.657 0 -3 -1.343 -3 -3 v -6.425 c 0 -1.657 1.343 -3 3 -3 c 1.657 0 3 1.343 3 3 v 6.425 C 49.105 29.903 47.763 31.246 46.105 31.246 z" style="stroke: none; stroke-width: 1; stroke-dasharray: none; stroke-linecap: butt; stroke-linejoin: miter; stroke-miterlimit: 10; fill: rgb(255,255,255); fill-rule: nonzero; opacity: 1;" transform=" matrix(1 0 0 1 0 0) " stroke-linecap="round" />
	<path d="M 46.105 71.179 c -1.657 0 -3 -1.343 -3 -3 v -6.425 c 0 -1.657 1.343 -3 3 -3 c 1.657 0 3 1.343 3 3 v 6.425 C 49.105 69.836 47.763 71.179 46.105 71.179 z" style="stroke: none; stroke-width: 1; stroke-dasharray: none; stroke-linecap: butt; stroke-linejoin: miter; stroke-miterlimit: 10; fill: rgb(255,255,255); fill-rule: nonzero; opacity: 1;" transform=" matrix(1 0 0 1 0 0) " stroke-linecap="round" />
</g>
</svg>